# Blender v2.67 (sub 0) OBJ File: ''
# www.blender.org
mtllib monstruo2.mtl
o Cube.004_Cube.009
v -1.080794 3.068387 2.573677
v -1.080794 3.068387 0.573677
v 0.919206 3.068387 0.573677
v 0.919206 3.068387 2.573677
v -1.080794 5.068387 2.573677
v -1.080794 5.068387 0.573677
v 0.919206 5.068387 0.573677
v 0.919206 5.068387 2.573677
vn -1.000000 0.000000 0.000000
vn 0.000000 0.000000 -1.000000
vn 1.000000 -0.000000 0.000000
vn 0.000000 0.000000 1.000000
vn 0.000000 -1.000000 0.000000
vn 0.000000 1.000000 0.000000
usemtl None
s off
f 5//1 6//1 1//1
f 6//2 7//2 2//2
f 7//3 8//3 4//3
f 8//4 5//4 1//4
f 1//5 2//5 3//5
f 8//6 7//6 6//6
f 6//1 2//1 1//1
f 7//2 3//2 2//2
f 3//3 7//3 4//3
f 4//4 8//4 1//4
f 4//5 1//5 3//5
f 5//6 8//6 6//6
o Cube.003_Cube.008
v -0.902522 3.493937 -4.060955
v -0.902522 3.493937 -6.060955
v 1.097478 3.493937 -6.060955
v 1.097478 3.493937 -4.060955
v -0.902522 5.493937 -4.060955
v -0.902522 5.493937 -6.060955
v 1.097478 5.493937 -6.060955
v 1.097478 5.493937 -4.060955
usemtl None
s off
f 13//1 14//1 9//1
f 14//2 15//2 11//2
f 15//3 16//3 12//3
f 16//4 13//4 9//4
f 9//5 10//5 11//5
f 16//6 15//6 14//6
f 14//1 10//1 9//1
f 10//2 14//2 11//2
f 11//3 15//3 12//3
f 12//4 16//4 9//4
f 12//5 9//5 11//5
f 13//6 16//6 14//6
o Cube.002_Cube.007
v -1.372397 -0.299773 -3.200958
v -1.372397 -0.299773 -5.200958
v 0.627603 -0.299773 -5.200958
v 0.627603 -0.299773 -3.200958
v -1.372397 1.700227 -3.200958
v -1.372397 1.700227 -5.200958
v 0.627603 1.700227 -5.200958
v 0.627603 1.700227 -3.200958
usemtl None
s off
f 21//1 22//1 17//1
f 22//2 23//2 19//2
f 23//3 24//3 20//3
f 24//4 21//4 17//4
f 17//5 18//5 19//5
f 24//6 23//6 22//6
f 22//1 18//1 17//1
f 18//2 22//2 19//2
f 19//3 23//3 20//3
f 20//4 24//4 17//4
f 20//5 17//5 19//5
f 21//6 24//6 22//6
o Cube.001_Cube.006
v -1.492645 -0.489274 1.881177
v -1.492645 -0.489274 -0.118823
v 0.507355 -0.489274 -0.118823
v 0.507355 -0.489274 1.881177
v -1.492645 1.510726 1.881177
v -1.492645 1.510726 -0.118823
v 0.507355 1.510726 -0.118823
v 0.507355 1.510726 1.881177
usemtl None
s off
f 29//1 30//1 25//1
f 30//2 31//2 26//2
f 31//3 32//3 28//3
f 32//4 29//4 25//4
f 25//5 26//5 27//5
f 32//6 31//6 30//6
f 30//1 26//1 25//1
f 31//2 27//2 26//2
f 27//3 31//3 28//3
f 28//4 32//4 25//4
f 28//5 25//5 27//5
f 29//6 32//6 30//6
o Cone.001
v -0.251776 6.065292 -5.882328
v -0.251776 11.238165 -3.295891
v 0.252813 6.065292 -5.832630
v 0.738011 6.065292 -5.685447
v 1.185172 6.065292 -5.446434
v 1.577111 6.065292 -5.124778
v 1.898768 6.065292 -4.732838
v 2.137780 6.065292 -4.285677
v 2.284963 6.065292 -3.800480
v 2.334661 6.065292 -3.295891
v 2.284963 6.065292 -2.791302
v 2.137780 6.065292 -2.306105
v 1.898768 6.065292 -1.858944
v 1.577111 6.065292 -1.467004
v 1.185171 6.065292 -1.145347
v 0.738010 6.065292 -0.906335
v 0.252812 6.065292 -0.759152
v -0.251777 6.065292 -0.709454
v -0.756366 6.065292 -0.759152
v -1.241563 6.065292 -0.906335
v -1.688724 6.065292 -1.145348
v -2.080664 6.065292 -1.467005
v -2.402320 6.065292 -1.858945
v -2.641333 6.065292 -2.306106
v -2.788515 6.065292 -2.791304
v -2.838212 6.065292 -3.295893
v -2.788514 6.065292 -3.800482
v -2.641330 6.065292 -4.285680
v -2.402318 6.065292 -4.732841
v -2.080660 6.065292 -5.124780
v -1.688720 6.065292 -5.446436
v -1.241559 6.065292 -5.685448
v -0.756361 6.065292 -5.832631
vn -0.259887 0.445488 -0.856737
vn 0.087753 0.445488 -0.890977
vn -0.087753 0.445488 -0.890977
vn 0.259889 0.445488 -0.856737
vn -0.422034 0.445488 -0.789574
vn -0.567964 0.445488 -0.692067
vn -0.692066 0.445488 -0.567965
vn -0.789573 0.445488 -0.422037
vn -0.856737 0.445488 -0.259889
vn -0.890977 0.445488 -0.087754
vn -0.890977 0.445488 0.087753
vn -0.856737 0.445488 0.259887
vn -0.789574 0.445488 0.422035
vn -0.692067 0.445488 0.567964
vn -0.567965 0.445488 0.692067
vn -0.422036 0.445488 0.789573
vn -0.259889 0.445488 0.856737
vn -0.087754 0.445488 0.890977
vn 0.087753 0.445488 0.890977
vn 0.259888 0.445488 0.856737
vn 0.422035 0.445488 0.789573
vn 0.567965 0.445488 0.692067
vn 0.692067 0.445488 0.567965
vn 0.789573 0.445488 0.422035
vn 0.856737 0.445488 0.259888
vn 0.890977 0.445488 0.087753
vn 0.890977 0.445488 -0.087753
vn 0.856737 0.445488 -0.259888
vn 0.789573 0.445488 -0.422036
vn 0.692067 0.445488 -0.567964
vn 0.567964 0.445488 -0.692067
vn 0.422036 0.445488 -0.789573
usemtl None
s off
f 64//7 34//7 65//7
f 33//8 34//8 35//8
f 65//9 34//9 33//9
f 35//10 34//10 36//10
f 63//11 34//11 64//11
f 62//12 34//12 63//12
f 61//13 34//13 62//13
f 60//14 34//14 61//14
f 59//15 34//15 60//15
f 58//16 34//16 59//16
f 57//17 34//17 58//17
f 56//18 34//18 57//18
f 55//19 34//19 56//19
f 54//20 34//20 55//20
f 53//21 34//21 54//21
f 52//22 34//22 53//22
f 51//23 34//23 52//23
f 50//24 34//24 51//24
f 49//25 34//25 50//25
f 48//26 34//26 49//26
f 47//27 34//27 48//27
f 46//28 34//28 47//28
f 45//29 34//29 46//29
f 44//30 34//30 45//30
f 43//31 34//31 44//31
f 42//32 34//32 43//32
f 41//33 34//33 42//33
f 40//34 34//34 41//34
f 39//35 34//35 40//35
f 38//36 34//36 39//36
f 37//37 34//37 38//37
f 36//38 34//38 37//38
f 33//5 35//5 65//5
f 35//5 36//5 65//5
f 36//5 37//5 65//5
f 37//5 38//5 65//5
f 38//5 39//5 65//5
f 39//5 40//5 65//5
f 40//5 41//5 65//5
f 41//5 42//5 65//5
f 42//5 43//5 65//5
f 43//5 44//5 65//5
f 44//5 45//5 65//5
f 45//5 46//5 65//5
f 46//5 47//5 65//5
f 47//5 48//5 65//5
f 48//5 49//5 65//5
f 49//5 50//5 65//5
f 50//5 51//5 65//5
f 51//5 52//5 65//5
f 52//5 53//5 65//5
f 53//5 54//5 65//5
f 54//5 55//5 65//5
f 55//5 56//5 65//5
f 56//5 57//5 65//5
f 57//5 58//5 65//5
f 58//5 59//5 65//5
f 59//5 60//5 65//5
f 60//5 61//5 65//5
f 61//5 62//5 65//5
f 62//5 63//5 64//5
f 65//5 62//5 64//5
o Cone
v -0.203550 5.855538 -1.705259
v -0.203550 11.028412 0.881177
v 0.301038 5.855538 -1.655562
v 0.786236 5.855538 -1.508379
v 1.233397 5.855538 -1.269366
v 1.625337 5.855538 -0.947710
v 1.946993 5.855538 -0.555770
v 2.186006 5.855538 -0.108609
v 2.333189 5.855538 0.376589
v 2.382886 5.855538 0.881177
v 2.333189 5.855538 1.385766
v 2.186006 5.855538 1.870964
v 1.946993 5.855538 2.318125
v 1.625337 5.855538 2.710064
v 1.233397 5.855538 3.031721
v 0.786236 5.855538 3.270734
v 0.301038 5.855538 3.417917
v -0.203551 5.855538 3.467614
v -0.708140 5.855538 3.417916
v -1.193338 5.855538 3.270733
v -1.640499 5.855538 3.031720
v -2.032439 5.855538 2.710063
v -2.354095 5.855538 2.318123
v -2.593107 5.855538 1.870962
v -2.740290 5.855538 1.385764
v -2.789987 5.855538 0.881175
v -2.740289 5.855538 0.376586
v -2.593105 5.855538 -0.108612
v -2.354092 5.855538 -0.555773
v -2.032435 5.855538 -0.947712
v -1.640495 5.855538 -1.269368
v -1.193333 5.855538 -1.508380
v -0.708135 5.855538 -1.655562
vn 0.087754 0.445488 -0.890977
vn 0.259888 0.445488 -0.856737
vn -0.692066 0.445488 -0.567966
vn -0.856737 0.445488 -0.259890
vn 0.087754 0.445488 0.890977
vn 0.422036 0.445488 0.789573
vn 0.789573 0.445488 0.422036
vn 0.890977 0.445488 0.087754
vn 0.890977 0.445488 -0.087754
vn 0.789573 0.445488 -0.422035
vn 0.692067 0.445488 -0.567965
usemtl None
s off
f 97//7 67//7 98//7
f 66//39 67//39 68//39
f 98//9 67//9 66//9
f 68//40 67//40 69//40
f 96//11 67//11 97//11
f 95//12 67//12 96//12
f 94//41 67//41 95//41
f 93//14 67//14 94//14
f 92//42 67//42 93//42
f 91//16 67//16 92//16
f 90//17 67//17 91//17
f 89//18 67//18 90//18
f 88//19 67//19 89//19
f 87//20 67//20 88//20
f 86//21 67//21 87//21
f 85//22 67//22 86//22
f 84//23 67//23 85//23
f 83//24 67//24 84//24
f 82//43 67//43 83//43
f 81//26 67//26 82//26
f 80//44 67//44 81//44
f 79//28 67//28 80//28
f 78//29 67//29 79//29
f 77//45 67//45 78//45
f 76//31 67//31 77//31
f 75//46 67//46 76//46
f 74//47 67//47 75//47
f 73//34 67//34 74//34
f 72//48 67//48 73//48
f 71//49 67//49 72//49
f 70//37 67//37 71//37
f 69//38 67//38 70//38
f 66//5 68//5 98//5
f 68//5 69//5 98//5
f 69//5 70//5 98//5
f 70//5 71//5 98//5
f 71//5 72//5 98//5
f 72//5 73//5 98//5
f 73//5 74//5 98//5
f 74//5 75//5 98//5
f 75//5 76//5 98//5
f 76//5 77//5 98//5
f 77//5 78//5 98//5
f 78//5 79//5 98//5
f 79//5 80//5 98//5
f 80//5 81//5 98//5
f 81//5 82//5 98//5
f 82//5 83//5 98//5
f 83//5 84//5 98//5
f 84//5 85//5 98//5
f 85//5 86//5 98//5
f 86//5 87//5 98//5
f 87//5 88//5 98//5
f 88//5 89//5 98//5
f 89//5 90//5 98//5
f 90//5 91//5 98//5
f 91//5 92//5 98//5
f 92//5 93//5 98//5
f 93//5 94//5 98//5
f 94//5 95//5 98//5
f 95//5 96//5 98//5
f 96//5 97//5 98//5
o Cube_Cube.005
v -2.444754 1.541281 0.879154
v -2.444754 1.541281 -3.705814
v 2.140214 1.541281 -3.705814
v 2.140214 1.541281 0.879154
v -2.444754 6.126249 0.879154
v -2.444754 6.126249 -3.705814
v 2.140214 6.126249 -3.705814
v 2.140214 6.126249 0.879154
usemtl None
s off
f 103//1 104//1 99//1
f 104//2 105//2 101//2
f 105//3 106//3 102//3
f 106//4 103//4 99//4
f 99//5 100//5 101//5
f 106//6 105//6 104//6
f 104//1 100//1 99//1
f 100//2 104//2 101//2
f 101//3 105//3 102//3
f 102//4 106//4 99//4
f 102//5 99//5 101//5
f 103//6 106//6 104//6
