# Blender v2.69 (sub 0) OBJ File: 'rocket.blend'
# www.blender.org
mtllib rocket.mtl
o Cube
v 1.000000 0.824926 -1.000000
v 1.000000 0.824926 1.000000
v -1.000000 0.824926 1.000000
v -1.000000 0.824926 -1.000000
v 1.000000 2.824926 -0.999999
v 0.999999 2.824926 1.000001
v -1.000000 2.824926 1.000000
v -1.000000 2.824926 -1.000000
v 1.000000 0.824926 -1.000000
v 1.000000 0.824926 1.000000
v -1.000000 0.824926 1.000000
v -1.000000 0.824926 -1.000000
v 1.000000 2.824926 -0.999999
v 0.999999 2.824926 1.000001
v -1.000000 2.824926 1.000000
v -1.000000 2.824926 -1.000000
v 5.805906 0.824926 -0.999999
v 5.805906 0.824926 1.000001
v 5.805906 2.824926 -0.999998
v 5.805905 2.824926 1.000002
v 7.887629 1.519616 -0.305308
v 7.887629 1.519616 0.305312
v 7.887629 2.130235 -0.305308
v 7.887628 2.130235 0.305312
v 1.000000 1.461682 -1.000000
v 1.000000 2.128349 -1.000000
v 1.000000 1.461682 1.000000
v 1.000000 2.128349 1.000000
v -1.000000 1.461682 1.000000
v -1.000000 2.128349 1.000000
v -1.000000 1.461682 -1.000000
v -1.000000 2.128349 -1.000000
v 5.805906 1.461682 -0.999998
v 5.805906 2.128349 -0.999998
v 5.805906 1.461682 1.000002
v 5.805905 2.128349 1.000002
v 7.887629 1.714024 -0.305308
v 7.887629 1.917564 -0.305308
v 7.887629 1.714024 0.305312
v 7.887629 1.917564 0.305312
v 1.000000 1.461683 -2.161558
v 1.000000 1.807879 -2.161558
v -1.000000 1.461683 -2.161559
v -1.000000 1.807879 -2.161558
v 1.000000 1.461682 2.322312
v 1.000000 1.862657 2.322312
v -1.000000 1.461682 2.322312
v -1.000000 1.862657 2.322312
vt 0.000239 0.418292
vt 0.174222 0.418183
vt 0.000239 0.592515
vt 0.696925 0.696776
vt 0.522691 0.696776
vt 0.696925 0.522788
vt 0.348456 0.348456
vt 0.522691 0.348457
vt 0.348456 0.522691
vt 0.532795 0.000000
vt 0.706225 0.000000
vt 0.532795 0.174234
vt 0.174222 0.592319
vt 0.174222 0.418085
vt 0.348456 0.592319
vt 0.707004 0.175027
vt 0.707004 0.348456
vt 0.532770 0.175027
vt 0.348703 0.696925
vt 0.348703 0.522691
vt 0.522691 0.696925
vt 0.696674 0.522679
vt 0.522691 0.522788
vt 0.696674 0.348456
vt 0.000000 0.418074
vt 0.174222 0.000109
vt 0.807416 0.000246
vt 0.868100 0.000246
vt 0.807416 0.173675
vt 0.216946 0.767932
vt 0.216946 0.828615
vt 0.042712 0.767932
vt 0.289012 0.941046
vt 0.233539 0.941046
vt 0.289012 0.767616
vt 0.348456 0.174222
vt 0.348457 0.000000
vt 0.532795 0.114300
vt 1.000000 0.591770
vt 0.944528 0.591770
vt 1.000000 0.175027
vt 0.767688 0.175027
vt 0.828372 0.175027
vt 0.767688 0.591770
vt 0.174222 0.000000
vt 0.348456 0.000000
vt 0.018766 0.819698
vt 0.000239 0.819698
vt 0.018766 0.766503
vt 0.586450 0.713912
vt 0.639209 0.696776
vt 0.623101 0.897916
vt 0.639209 0.715522
vt 0.679304 0.898408
vt 0.532770 0.174222
vt 0.532770 0.348456
vt 0.348457 0.234742
vt 0.348456 0.941046
vt 0.292984 0.941046
vt 0.348456 0.767616
vt 0.348456 0.593633
vt 0.233539 0.592319
vt 0.886087 0.591770
vt 0.941560 0.591770
vt 0.886087 0.766004
vt 0.535029 0.813081
vt 0.535029 0.871159
vt 0.360794 0.813081
vt 0.928784 0.173675
vt 0.868100 0.173675
vt 0.928784 0.000246
vt 0.706225 0.174234
vt 0.706225 0.000246
vt 0.807416 0.174234
vt 0.707004 0.591770
vt 0.886450 0.591770
vt 0.828372 0.591770
vt 0.886450 0.175027
vt 0.772899 0.591770
vt 0.828371 0.591770
vt 0.772899 1.008512
vt 0.944528 0.175027
vt 0.886450 0.591769
vt 0.035703 0.766503
vt 0.535029 0.888891
vt 0.481833 0.871159
vt 0.886087 0.793401
vt 0.828371 0.774655
vt 0.868466 0.591770
vt 0.535029 0.696925
vt 0.535029 0.755003
vt 0.348703 0.715288
vt 0.752049 0.793554
vt 0.700826 0.772260
vt 0.752049 0.591770
vt 0.348703 0.794718
vt 0.958943 0.000246
vt 0.115435 0.767932
vt 0.115435 0.593948
vt 0.216946 0.766498
vt 0.101750 0.828615
vt 0.101750 0.886694
vt 0.000559 0.828616
vt 0.700826 0.793554
vt 0.758904 0.793554
vt 0.758904 0.894745
vt 0.586450 0.870205
vt 0.551518 0.870205
vt 0.586450 0.696776
vt 0.115435 0.592515
vt 0.115435 0.766503
vt 0.828371 0.793401
vt 0.886450 0.793401
vt 0.886450 0.908597
vt 0.216946 0.886694
vt 0.174222 0.592405
vt 0.522691 0.522691
vt 0.348456 0.418085
vt 0.522691 0.348566
vt 0.000000 0.000000
vt 0.042712 0.828615
vt 0.233539 0.767616
vt 0.532795 0.061108
vt 0.828372 0.591769
vt 0.000239 0.766503
vt 0.639209 0.892684
vt 0.696925 0.892684
vt 0.348456 0.287937
vt 0.292984 0.767616
vt 0.233539 0.766303
vt 0.941560 0.766004
vt 0.360794 0.871159
vt 0.828371 0.175027
vt 0.828371 1.008512
vt 0.035703 0.819698
vt 0.481833 0.888891
vt 0.886087 0.597493
vt 0.348703 0.733020
vt 0.767688 0.598271
vt 0.348703 0.776986
vt 0.958943 0.173675
vt 0.216946 0.592515
vt 0.000559 0.858775
vt 0.728745 0.894745
vt 0.551518 0.696776
vt 0.851518 0.908597
vt 0.101750 0.863547
vn 0.000000 1.000000 0.000000
vn 0.000000 -1.000000 0.000000
vn -1.000000 0.000000 0.000000
vn 0.000000 0.000000 -1.000000
vn 1.000000 0.000000 0.000000
vn -0.000000 -0.000000 1.000000
vn -1.000000 -0.000001 -0.000000
vn 0.316549 0.948576 0.000000
vn 0.316549 -0.000001 0.948576
vn 0.316549 0.000001 -0.948576
vn 0.316549 -0.948576 0.000000
vn -0.000000 0.980405 0.196993
vn 1.000000 0.000008 0.000000
vn 0.316548 0.000000 0.948576
vn 0.316549 0.000000 0.948576
vn 0.316549 -0.000001 -0.948576
vn 0.000000 0.000001 -1.000000
vn 0.000000 0.963984 -0.265960
vn -0.000001 -0.000001 1.000000
vn -1.000000 -0.000000 -0.000001
vn 0.316549 0.948576 0.000001
vn 1.000000 -0.000000 0.000001
vn 0.316549 0.000001 0.948576
vn 0.316548 -0.000000 -0.948576
vn 1.000000 0.000004 0.000000
vn 1.000000 -0.000004 0.000000
vn 0.316549 0.000000 -0.948576
vn 0.000001 0.000001 -1.000000
vn 1.000000 -0.000001 0.000000
usemtl Material
s off
f 1/1/1 4/2/1 2/3/1
f 5/4/2 6/5/2 8/6/2
f 1/7/3 2/8/3 5/9/3
f 2/10/4 3/11/4 6/12/4
f 3/13/5 4/14/5 7/15/5
f 5/16/6 8/17/6 1/18/6
f 9/19/2 10/20/2 12/21/2
f 13/22/1 16/23/1 14/24/1
f 13/2/1 14/25/1 19/26/1
f 28/27/6 14/28/6 30/29/6
f 30/30/7 15/31/7 32/32/7
f 25/33/4 9/34/4 31/35/4
f 19/36/8 20/37/8 23/38/8
f 27/39/6 10/40/6 35/41/6
f 26/42/4 13/43/4 34/44/4
f 10/45/2 9/46/2 18/14/2
f 38/47/5 23/48/5 40/49/5
f 35/50/9 18/51/9 39/52/9
f 34/53/10 19/4/10 38/54/10
f 18/55/11 17/56/11 22/57/11
f 10/58/6 27/59/6 11/60/6
f 28/61/12 30/60/12 46/62/12
f 11/63/3 29/64/3 12/65/3
f 29/66/3 30/67/3 31/68/3
f 13/69/4 26/70/4 16/71/4
f 25/72/2 31/73/2 41/74/2
f 14/44/6 28/75/6 20/42/6
f 28/76/6 27/77/6 36/78/6
f 9/79/4 25/80/4 17/81/4
f 25/78/4 26/82/4 33/83/4
f 21/49/5 37/84/5 22/47/5
f 37/67/13 38/85/13 39/86/13
f 20/87/14 36/88/14 40/89/14
f 36/90/15 35/91/15 40/92/15
f 17/93/16 33/94/16 37/95/16
f 33/91/10 34/66/10 38/96/10
f 42/71/17 41/97/17 44/69/17
f 32/98/18 26/99/18 44/100/18
f 31/101/3 32/102/3 43/103/3
f 26/104/5 25/105/5 41/106/5
f 45/107/19 46/108/19 47/109/19
f 29/110/2 27/111/2 47/3/2
f 30/112/3 29/113/3 47/114/3
f 27/31/5 28/115/5 45/101/5
f 4/2/1 3/116/1 2/3/1
f 6/5/2 7/23/2 8/6/2
f 2/8/20 6/117/20 5/9/20
f 3/11/4 7/72/4 6/12/4
f 4/14/5 8/118/5 7/15/5
f 8/17/6 4/56/6 1/18/6
f 10/20/2 11/117/2 12/21/2
f 16/23/1 15/119/1 14/24/1
f 14/25/1 20/120/1 19/26/1
f 14/28/6 15/70/6 30/29/6
f 15/31/3 16/121/3 32/32/3
f 9/34/4 12/122/4 31/35/4
f 20/37/21 24/123/21 23/38/21
f 10/40/6 18/82/6 35/41/6
f 13/43/4 19/124/4 34/44/4
f 9/46/2 17/118/2 18/14/2
f 23/48/22 24/125/22 40/49/22
f 18/51/23 22/126/23 39/52/23
f 19/4/24 23/127/24 38/54/24
f 17/56/11 21/128/11 22/57/11
f 27/59/6 29/129/6 11/60/6
f 30/60/12 48/130/12 46/62/12
f 29/64/3 31/131/3 12/65/3
f 30/67/3 32/132/3 31/68/3
f 26/70/4 32/28/4 16/71/4
f 31/73/2 43/27/2 41/74/2
f 28/75/6 36/16/6 20/42/6
f 27/77/6 35/133/6 36/78/6
f 25/80/4 33/134/4 17/81/4
f 26/82/4 34/40/4 33/83/4
f 37/84/25 39/135/25 22/47/25
f 38/85/26 40/136/26 39/86/26
f 24/137/15 20/87/15 40/89/15
f 35/91/9 39/138/9 40/92/9
f 21/139/27 17/93/27 37/95/27
f 37/140/27 33/91/27 38/96/27
f 41/97/28 43/141/28 44/69/28
f 26/99/18 42/142/18 44/100/18
f 32/102/7 44/143/7 43/103/7
f 42/144/29 26/104/29 41/106/29
f 46/108/6 48/145/6 47/109/6
f 27/111/2 45/125/2 47/3/2
f 48/146/3 30/112/3 47/114/3
f 28/115/5 46/147/5 45/101/5
